<?xml version="1.0"?>
<!-- favicon.svg — app/public/favicon.svg -->
<!-- Cambio: favicon corregido al símbolo del toldo (extraído del logo iVent), dorado #C9A84C, viewBox cuadrado -->
<!-- 2026-06-19 18:05 -->
<svg xmlns="http://www.w3.org/2000/svg" width="512" height="512" viewBox="0 0 512 512">
 <g transform="translate(-266.0881 73.0141) scale(0.991498)">
  <path fill="#C9A84C" d="M501.822083,210.846649 
	C517.520325,188.948227 526.024536,164.663651 529.527771,138.494064 
	C530.355286,132.312286 529.413086,126.330704 526.631897,120.452667 
	C525.140442,122.118324 524.711243,123.881073 524.185669,125.630180 
	C510.234863,172.059570 481.719055,207.753143 442.613129,235.419327 
	C416.347473,254.001419 386.969788,265.309113 355.314758,270.611572 
	C347.293060,271.955231 339.090027,272.206635 330.974854,273.005890 
	C326.854248,273.411743 325.646149,271.204407 325.909088,267.576996 
	C326.138428,264.412811 325.091949,260.920044 330.509521,260.620636 
	C405.356720,256.484131 460.418732,219.685028 499.958160,157.497009 
	C502.543671,153.430496 504.700195,149.075195 506.846802,144.750275 
	C508.913666,140.586090 510.708801,136.287033 512.412964,131.889374 
	C503.731110,144.172241 494.002533,155.562424 483.443420,166.211945 
	C449.025543,200.924515 408.190308,224.210266 360.294098,234.648758 
	C350.699127,236.739899 340.886322,237.594574 331.074615,238.256424 
	C327.439972,238.501587 325.704498,237.130447 325.940918,233.462585 
	C326.153625,230.162796 324.854095,226.112030 330.470764,225.827332 
	C380.332947,223.299957 423.297791,203.540253 461.378113,172.394608 
	C486.355835,151.965485 506.993500,127.636192 522.763672,99.341331 
	C523.480408,98.055367 523.924805,96.551514 525.396606,95.703407 
	C527.654785,95.921013 527.987061,98.040833 528.851318,99.496597 
	C559.725220,151.502914 602.505859,189.777802 658.992371,212.141266 
	C678.792908,219.980453 699.461792,224.222885 720.690857,225.699585 
	C726.356079,226.093658 726.517029,226.518005 726.417358,234.025497 
	C726.352417,238.917038 723.253845,238.287170 720.279175,238.065033 
	C672.651672,234.508774 630.579529,216.899200 593.002380,187.827866 
	C573.356262,172.628769 556.371033,154.911057 541.383484,134.920135 
	C542.970032,138.551468 544.435120,142.242355 546.177246,145.797470 
	C547.934570,149.383713 549.845093,152.908173 551.896973,156.334854 
	C585.130066,211.835693 633.554382,245.598969 697.089783,257.720886 
	C705.282776,259.284027 713.574097,260.132782 721.871765,260.587402 
	C728.279541,260.938416 725.826294,265.459473 726.208740,268.601715 
	C726.665344,272.353027 724.310730,273.000275 721.172852,272.792053 
	C665.570068,269.101624 617.598083,248.320160 578.188477,208.649261 
	C563.168091,193.529327 551.019897,176.258133 541.612976,157.095963 
	C540.962646,155.771103 540.161499,154.520309 538.922485,152.342087 
	C531.112305,199.041565 508.202026,234.646362 467.297943,257.581909 
	C451.214661,266.600098 433.819427,271.755005 414.871124,271.277985 
	C450.675903,260.994781 479.503815,240.880386 501.822083,210.846649 
z"></path>
  <path fill="#C9A84C" d="M617.651367,269.533936 
	C580.874573,260.944824 554.017883,239.659424 533.957825,208.622360 
	C528.588440,200.314835 530.922302,193.858078 535.659241,185.971268 
	C557.845459,229.696106 591.574402,258.795166 639.093994,271.281372 
	C631.831482,271.908783 624.904907,271.299469 617.651367,269.533936 
z"></path>
 </g>
</svg>
