<?xml version="1.0"?>
<svg xmlns="http://www.w3.org/2000/svg" width="1024" height="544" viewBox="0 0 1024 544">
  <path fill="#C9A84C" d="M501.822083,210.846649 &#xA;&#x9;C517.520325,188.948227 526.024536,164.663651 529.527771,138.494064 &#xA;&#x9;C530.355286,132.312286 529.413086,126.330704 526.631897,120.452667 &#xA;&#x9;C525.140442,122.118324 524.711243,123.881073 524.185669,125.630180 &#xA;&#x9;C510.234863,172.059570 481.719055,207.753143 442.613129,235.419327 &#xA;&#x9;C416.347473,254.001419 386.969788,265.309113 355.314758,270.611572 &#xA;&#x9;C347.293060,271.955231 339.090027,272.206635 330.974854,273.005890 &#xA;&#x9;C326.854248,273.411743 325.646149,271.204407 325.909088,267.576996 &#xA;&#x9;C326.138428,264.412811 325.091949,260.920044 330.509521,260.620636 &#xA;&#x9;C405.356720,256.484131 460.418732,219.685028 499.958160,157.497009 &#xA;&#x9;C502.543671,153.430496 504.700195,149.075195 506.846802,144.750275 &#xA;&#x9;C508.913666,140.586090 510.708801,136.287033 512.412964,131.889374 &#xA;&#x9;C503.731110,144.172241 494.002533,155.562424 483.443420,166.211945 &#xA;&#x9;C449.025543,200.924515 408.190308,224.210266 360.294098,234.648758 &#xA;&#x9;C350.699127,236.739899 340.886322,237.594574 331.074615,238.256424 &#xA;&#x9;C327.439972,238.501587 325.704498,237.130447 325.940918,233.462585 &#xA;&#x9;C326.153625,230.162796 324.854095,226.112030 330.470764,225.827332 &#xA;&#x9;C380.332947,223.299957 423.297791,203.540253 461.378113,172.394608 &#xA;&#x9;C486.355835,151.965485 506.993500,127.636192 522.763672,99.341331 &#xA;&#x9;C523.480408,98.055367 523.924805,96.551514 525.396606,95.703407 &#xA;&#x9;C527.654785,95.921013 527.987061,98.040833 528.851318,99.496597 &#xA;&#x9;C559.725220,151.502914 602.505859,189.777802 658.992371,212.141266 &#xA;&#x9;C678.792908,219.980453 699.461792,224.222885 720.690857,225.699585 &#xA;&#x9;C726.356079,226.093658 726.517029,226.518005 726.417358,234.025497 &#xA;&#x9;C726.352417,238.917038 723.253845,238.287170 720.279175,238.065033 &#xA;&#x9;C672.651672,234.508774 630.579529,216.899200 593.002380,187.827866 &#xA;&#x9;C573.356262,172.628769 556.371033,154.911057 541.383484,134.920135 &#xA;&#x9;C542.970032,138.551468 544.435120,142.242355 546.177246,145.797470 &#xA;&#x9;C547.934570,149.383713 549.845093,152.908173 551.896973,156.334854 &#xA;&#x9;C585.130066,211.835693 633.554382,245.598969 697.089783,257.720886 &#xA;&#x9;C705.282776,259.284027 713.574097,260.132782 721.871765,260.587402 &#xA;&#x9;C728.279541,260.938416 725.826294,265.459473 726.208740,268.601715 &#xA;&#x9;C726.665344,272.353027 724.310730,273.000275 721.172852,272.792053 &#xA;&#x9;C665.570068,269.101624 617.598083,248.320160 578.188477,208.649261 &#xA;&#x9;C563.168091,193.529327 551.019897,176.258133 541.612976,157.095963 &#xA;&#x9;C540.962646,155.771103 540.161499,154.520309 538.922485,152.342087 &#xA;&#x9;C531.112305,199.041565 508.202026,234.646362 467.297943,257.581909 &#xA;&#x9;C451.214661,266.600098 433.819427,271.755005 414.871124,271.277985 &#xA;&#x9;C450.675903,260.994781 479.503815,240.880386 501.822083,210.846649 &#xA;z"></path>
  <path fill="#C9A84C" d="M617.651367,269.533936 &#xA;&#x9;C580.874573,260.944824 554.017883,239.659424 533.957825,208.622360 &#xA;&#x9;C528.588440,200.314835 530.922302,193.858078 535.659241,185.971268 &#xA;&#x9;C557.845459,229.696106 591.574402,258.795166 639.093994,271.281372 &#xA;&#x9;C631.831482,271.908783 624.904907,271.299469 617.651367,269.533936 &#xA;z"></path>
  <path fill="#000000" d="M652.314453,386.000092 &#xA;&#x9;C652.443420,394.322754 652.425537,402.151917 652.770752,409.965088 &#xA;&#x9;C652.920044,413.344147 651.653381,414.439148 648.476257,414.342773 &#xA;&#x9;C644.150024,414.211578 639.813599,414.222137 635.487061,414.354065 &#xA;&#x9;C631.942688,414.462097 631.200806,413.078705 631.299377,409.528137 &#xA;&#x9;C631.779480,392.232361 632.810669,374.874847 630.888123,357.646362 &#xA;&#x9;C629.636353,346.429108 624.971802,341.720856 616.539124,340.415131 &#xA;&#x9;C606.922485,338.926025 597.989502,343.620697 593.434509,352.593201 &#xA;&#x9;C590.343079,358.682861 589.439880,365.296631 589.422974,371.971954 &#xA;&#x9;C589.392273,384.116425 588.711609,396.290955 590.311340,408.393524 &#xA;&#x9;C590.906799,412.898804 589.326416,414.810394 584.586060,414.406952 &#xA;&#x9;C580.284973,414.040924 575.931763,414.261566 571.601624,414.273285 &#xA;&#x9;C569.035645,414.280212 568.077026,413.010193 568.157776,410.526306 &#xA;&#x9;C568.969360,385.560699 569.191406,360.598907 567.838074,335.639008 &#xA;&#x9;C567.475098,328.944489 567.651733,328.888000 574.285034,328.890259 &#xA;&#x9;C578.106140,328.891541 582.223145,328.209503 585.674133,329.391174 &#xA;&#x9;C590.087158,330.902191 587.007202,336.501038 589.583618,339.614166 &#xA;&#x9;C591.787964,339.470276 592.687195,337.439240 594.039062,336.164581 &#xA;&#x9;C605.149780,325.688141 624.971008,323.028992 638.315979,330.450378 &#xA;&#x9;C648.923096,336.349213 651.779724,346.443024 652.177612,357.520874 &#xA;&#x9;C652.512207,366.836914 652.290283,376.172943 652.314453,386.000092 &#xA;z"></path>
  <path fill="#000000" d="M463.948059,370.151917 &#xA;&#x9;C467.566010,344.579559 478.956238,331.404663 501.859406,327.351288 &#xA;&#x9;C513.078674,325.365692 524.446716,325.829193 535.065613,331.066040 &#xA;&#x9;C548.243652,337.564972 553.628906,351.771210 547.044006,363.026154 &#xA;&#x9;C543.903687,368.393555 538.956360,371.777496 533.412781,374.318878 &#xA;&#x9;C522.674377,379.241730 511.204987,381.107208 499.581970,382.302216 &#xA;&#x9;C496.128479,382.657288 492.674652,383.009369 488.992004,383.386261 &#xA;&#x9;C489.146576,387.204926 491.463898,389.457794 493.479095,391.745178 &#xA;&#x9;C505.041016,404.868530 531.725952,407.643738 543.498657,392.990112 &#xA;&#x9;C544.943665,391.191498 546.510193,389.597626 548.739258,392.071411 &#xA;&#x9;C550.541016,394.070953 553.471008,395.608429 550.631775,399.047821 &#xA;&#x9;C537.238037,415.273193 519.699463,419.218475 500.182343,414.997467 &#xA;&#x9;C482.264709,411.122314 469.643982,400.611206 465.353516,381.956299 &#xA;&#x9;C464.502747,378.257141 464.384033,374.389618 463.948059,370.151917 &#xA;M521.486389,339.817566 &#xA;&#x9;C509.818817,334.967010 498.143005,338.003937 491.415436,347.796997 &#xA;&#x9;C486.826141,354.477417 485.630585,362.161804 485.319794,370.051544 &#xA;&#x9;C485.237579,372.138580 485.790253,373.761566 488.320648,373.562927 &#xA;&#x9;C498.931641,372.730011 509.628723,371.971710 519.141235,366.593719 &#xA;&#x9;C530.599915,360.115417 531.882568,347.733002 521.486389,339.817566 &#xA;z"></path>
  <path fill="#000000" d="M411.431091,387.655060 &#xA;&#x9;C412.804565,390.507751 413.324799,393.373474 415.340698,395.590668 &#xA;&#x9;C417.121124,394.486481 417.477081,392.598877 418.143738,390.991852 &#xA;&#x9;C425.801453,372.532104 433.580963,354.118896 440.888885,335.520721 &#xA;&#x9;C442.828949,330.583405 445.224701,328.477753 450.690735,328.720428 &#xA;&#x9;C460.098999,329.138062 460.130615,328.813385 456.427094,337.518463 &#xA;&#x9;C446.256622,361.423828 435.979889,385.284729 425.975952,409.259491 &#xA;&#x9;C424.215546,413.478333 421.701599,415.004944 417.304047,414.931213 &#xA;&#x9;C398.680115,414.618744 403.201508,416.965332 396.105408,401.554474 &#xA;&#x9;C386.006897,379.623016 376.346924,357.489502 366.524261,335.431335 &#xA;&#x9;C365.794952,333.793518 365.263702,332.067535 364.392212,329.711700 &#xA;&#x9;C371.776367,328.189697 378.674652,328.663055 385.501495,329.261780 &#xA;&#x9;C387.900665,329.472229 388.195740,332.411957 389.014618,334.350952 &#xA;&#x9;C396.464417,351.991943 403.870453,369.651398 411.431091,387.655060 &#xA;z"></path>
  <path fill="#000000" d="M702.019653,328.170471 &#xA;&#x9;C706.419067,328.412811 710.409424,328.714905 714.391602,328.630066 &#xA;&#x9;C718.380798,328.545074 718.441284,331.013672 718.440369,333.889587 &#xA;&#x9;C718.439453,336.779999 718.299011,339.307983 714.386169,339.232880 &#xA;&#x9;C710.725647,339.162598 707.061646,339.292938 703.399292,339.288239 &#xA;&#x9;C701.100647,339.285309 699.401367,340.010681 699.409729,342.625153 &#xA;&#x9;C699.460999,358.601654 699.067627,374.599548 699.778259,390.547760 &#xA;&#x9;C700.360657,403.619293 710.888245,405.188660 719.924316,402.252777 &#xA;&#x9;C721.793579,401.645477 723.958801,398.729584 725.889343,402.133636 &#xA;&#x9;C728.097534,406.027222 727.323730,410.117096 723.801331,412.008179 &#xA;&#x9;C713.141479,417.731171 702.051208,418.339844 691.217041,412.982117 &#xA;&#x9;C682.714844,408.777588 678.860901,401.052277 678.721924,391.721069 &#xA;&#x9;C678.506226,377.239624 678.685303,362.752716 678.533936,348.269836 &#xA;&#x9;C678.440674,339.347504 678.302673,339.149048 669.380981,339.234772 &#xA;&#x9;C664.947998,339.277405 663.590576,337.592041 663.660400,333.332336 &#xA;&#x9;C663.722351,329.556824 664.858765,327.661926 668.815125,327.943115 &#xA;&#x9;C670.471497,328.060822 672.147705,327.884033 673.807434,327.975128 &#xA;&#x9;C677.063660,328.153870 678.734863,326.928650 678.808105,323.418854 &#xA;&#x9;C678.894653,319.269745 679.394714,315.129669 679.701355,310.984619 &#xA;&#x9;C679.811279,309.499512 679.560059,307.647003 681.144836,306.982330 &#xA;&#x9;C686.219971,304.853699 691.600403,303.683350 697.033508,303.026550 &#xA;&#x9;C699.379822,302.742950 699.267395,305.061432 699.286072,306.681671 &#xA;&#x9;C699.349304,312.175079 699.305359,317.669647 699.344116,323.163513 &#xA;&#x9;C699.357971,325.111450 698.924805,327.321625 702.019653,328.170471 &#xA;z"></path>
  <path fill="#000000" d="M350.185059,410.968658 &#xA;&#x9;C350.104950,414.368896 347.957458,414.302551 345.923553,414.319550 &#xA;&#x9;C341.758240,414.354370 337.577484,414.124847 333.431152,414.411011 &#xA;&#x9;C328.929474,414.721741 327.566772,412.841309 327.892426,408.539551 &#xA;&#x9;C329.441437,388.077576 328.324799,367.575562 328.589142,347.092438 &#xA;&#x9;C328.644867,342.771240 328.454346,338.432190 328.097137,334.124634 &#xA;&#x9;C327.772736,330.212921 329.279602,328.597565 333.207428,328.801544 &#xA;&#x9;C336.863434,328.991364 340.545044,329.005737 344.200104,328.810760 &#xA;&#x9;C348.103729,328.602539 349.409668,330.200195 349.385742,334.083893 &#xA;&#x9;C349.255554,355.244080 349.287018,376.405701 349.377411,397.566376 &#xA;&#x9;C349.395844,401.880951 349.904480,406.193390 350.185059,410.968658 &#xA;z"></path>
</svg>